<svg width="14" height="15" viewBox="0 0 14 16" fill="none" xmlns="http://www.w3.org/2000/svg">
<path d="M9.62464 14.893C9.65963 15.1554 9.57214 15.4354 9.37092 15.6191C9.28998 15.7002 9.19384 15.7646 9.08801 15.8085C8.98217 15.8524 8.86871 15.875 8.75413 15.875C8.63955 15.875 8.52609 15.8524 8.42026 15.8085C8.31442 15.7646 8.21828 15.7002 8.13734 15.6191L4.62908 12.1108C4.53371 12.0175 4.4612 11.9034 4.41719 11.7775C4.37318 11.6515 4.35887 11.5171 4.37536 11.3847V6.90531L0.184694 1.5423C0.0426205 1.35992 -0.0214858 1.12871 0.00638272 0.899206C0.0342512 0.669701 0.151829 0.460557 0.333423 0.317473C0.49965 0.19499 0.683375 0.125 0.875848 0.125H13.1242C13.3166 0.125 13.5003 0.19499 13.6666 0.317473C13.8482 0.460557 13.9657 0.669701 13.9936 0.899206C14.0215 1.12871 13.9574 1.35992 13.8153 1.5423L9.62464 6.90531V14.893ZM2.6606 1.87476L6.12512 6.30164V11.131L7.87488 12.8807V6.2929L11.3394 1.87476H2.6606Z" fill="#1D1D1D"/>
</svg>
