<svg width="112.5" height="52.5" viewBox="0 0 150 70" fill="none" xmlns="http://www.w3.org/2000/svg">
<path d="M29.5512 14.2661C32.0136 15.516 31.9327 18.731 30.2396 20.9125C26.2881 26.004 25.9833 30.2582 30.2547 35.8442C31.9321 38.0378 32.0136 41.2575 29.5512 42.5074C23.6091 45.5236 16.1611 44.5479 11.1934 39.5801C5.01146 33.3982 5.01146 23.3753 11.1934 17.1933C16.1611 12.2256 23.6091 11.2498 29.5512 14.2661Z" fill="#619ABC"/>
<path d="M35.1226 36.2469L34.4388 35.5731C32.6496 33.81 32.6284 30.9304 34.3915 29.1412C36.1545 27.352 39.0342 27.3308 40.8233 29.0939L44.4441 32.6617C48.2329 36.3952 48.2778 42.4933 44.5443 46.2821L39.9436 50.951C38.2843 52.6349 35.574 52.6548 33.8901 50.9955C32.2062 49.3362 32.1862 46.6259 33.8456 44.942L35.1766 43.5912C37.1898 41.5482 37.1656 38.26 35.1226 36.2469Z" fill="#9AC4DC"/>
<path d="M65.112 42.48C63.736 42.48 62.504 42.16 61.416 41.52C60.328 40.88 59.48 40 58.872 38.88C58.264 37.728 57.96 36.448 57.96 35.04C57.96 33.664 58.264 32.432 58.872 31.344C59.48 30.256 60.328 29.408 61.416 28.8C62.504 28.16 63.736 27.84 65.112 27.84C66.008 27.84 66.808 27.984 67.512 28.272C68.216 28.56 68.824 28.96 69.336 29.472V22.752C69.336 22.208 69.496 21.808 69.816 21.552C70.168 21.264 70.552 21.12 70.968 21.12C71.384 21.12 71.752 21.264 72.072 21.552C72.424 21.808 72.6 22.208 72.6 22.752V40.992C72.6 41.472 72.424 41.84 72.072 42.096C71.752 42.352 71.384 42.48 70.968 42.48C70.552 42.48 70.168 42.352 69.816 42.096C69.496 41.84 69.336 41.472 69.336 40.992V40.8C68.824 41.312 68.216 41.712 67.512 42C66.808 42.32 66.008 42.48 65.112 42.48ZM65.4 39.504C66.616 39.504 67.576 39.104 68.28 38.304C68.984 37.472 69.336 36.384 69.336 35.04C69.336 33.76 68.984 32.736 68.28 31.968C67.576 31.2 66.616 30.816 65.4 30.816C64.152 30.816 63.144 31.2 62.376 31.968C61.608 32.736 61.224 33.76 61.224 35.04C61.224 36.384 61.608 37.472 62.376 38.304C63.144 39.104 64.152 39.504 65.4 39.504ZM82.6969 42.48C81.2889 42.48 80.0089 42.16 78.8569 41.52C77.7369 40.88 76.8569 40 76.2169 38.88C75.5769 37.728 75.2569 36.448 75.2569 35.04C75.2569 33.664 75.5769 32.432 76.2169 31.344C76.8569 30.256 77.7369 29.408 78.8569 28.8C80.0089 28.16 81.2889 27.84 82.6969 27.84C84.1049 27.84 85.3689 28.16 86.4889 28.8C87.6089 29.408 88.4889 30.256 89.1289 31.344C89.8009 32.432 90.1369 33.664 90.1369 35.04C90.1369 36.448 89.8009 37.728 89.1289 38.88C88.4889 40 87.6089 40.88 86.4889 41.52C85.3689 42.16 84.1049 42.48 82.6969 42.48ZM82.6969 39.504C83.9449 39.504 84.9529 39.104 85.7209 38.304C86.4889 37.472 86.8729 36.384 86.8729 35.04C86.8729 33.76 86.4889 32.736 85.7209 31.968C84.9529 31.2 83.9449 30.816 82.6969 30.816C81.4169 30.816 80.3929 31.2 79.6249 31.968C78.8889 32.736 78.5209 33.76 78.5209 35.04C78.5209 36.384 78.8889 37.472 79.6249 38.304C80.3929 39.104 81.4169 39.504 82.6969 39.504ZM105.046 42.48C104.63 42.48 104.246 42.352 103.894 42.096C103.574 41.84 103.414 41.472 103.414 40.992V34.944C103.414 33.536 103.094 32.496 102.454 31.824C101.846 31.152 101.03 30.816 100.006 30.816C98.6941 30.816 97.7341 31.248 97.1261 32.112C96.5501 32.944 96.2621 33.872 96.2621 34.896V40.992C96.2621 41.472 96.0861 41.84 95.7341 42.096C95.4141 42.352 95.0461 42.48 94.6301 42.48C94.2141 42.48 93.8301 42.352 93.4781 42.096C93.1581 41.84 92.9981 41.472 92.9981 40.992V29.712C92.9981 29.168 93.1581 28.768 93.4781 28.512C93.8301 28.224 94.2141 28.08 94.6301 28.08C95.0461 28.08 95.4141 28.224 95.7341 28.512C96.0861 28.768 96.2621 29.168 96.2621 29.712C96.8061 29.168 97.5101 28.72 98.3741 28.368C99.2381 28.016 100.054 27.84 100.822 27.84C102.614 27.84 104.038 28.416 105.094 29.568C106.15 30.72 106.678 32.416 106.678 34.656V40.992C106.678 41.472 106.502 41.84 106.15 42.096C105.798 42.352 105.43 42.48 105.046 42.48ZM116.199 48.72C115.527 48.72 114.775 48.656 113.943 48.528C113.111 48.4 112.295 48.128 111.495 47.712C110.887 47.392 110.583 46.896 110.583 46.224C110.583 45.84 110.711 45.488 110.967 45.168C111.255 44.848 111.607 44.688 112.023 44.688C112.311 44.688 112.599 44.768 112.887 44.928C113.495 45.248 114.103 45.472 114.711 45.6C115.319 45.728 115.911 45.792 116.487 45.792C117.639 45.792 118.631 45.488 119.463 44.88C120.295 44.304 120.711 43.376 120.711 42.096V40.752C120.167 41.296 119.527 41.712 118.791 42C118.087 42.32 117.287 42.48 116.391 42.48C115.079 42.48 113.879 42.16 112.791 41.52C111.735 40.88 110.887 40 110.247 38.88C109.639 37.76 109.335 36.496 109.335 35.088C109.335 33.68 109.639 32.416 110.247 31.296C110.855 30.176 111.687 29.296 112.743 28.656C113.799 28.016 114.999 27.744 116.343 27.84C117.271 27.904 118.087 28.096 118.791 28.416C119.527 28.704 120.167 29.104 120.711 29.616C120.711 29.168 120.855 28.8 121.143 28.512C121.463 28.224 121.863 28.08 122.343 28.08C122.823 28.08 123.207 28.224 123.495 28.512C123.815 28.8 123.975 29.168 123.975 29.616V42.192C123.975 43.664 123.623 44.88 122.919 45.84C122.247 46.832 121.319 47.552 120.135 48C118.951 48.48 117.639 48.72 116.199 48.72ZM116.775 39.504C117.991 39.504 118.951 39.104 119.655 38.304C120.359 37.472 120.711 36.384 120.711 35.04C120.711 33.76 120.359 32.736 119.655 31.968C118.951 31.2 117.991 30.816 116.775 30.816C115.527 30.816 114.519 31.2 113.751 31.968C112.983 32.736 112.599 33.776 112.599 35.088C112.599 36.368 112.967 37.424 113.703 38.256C114.471 39.088 115.495 39.504 116.775 39.504ZM129.458 42.48C129.042 42.48 128.658 42.352 128.306 42.096C127.986 41.84 127.826 41.472 127.826 40.992V22.752C127.826 22.208 127.986 21.808 128.306 21.552C128.658 21.264 129.042 21.12 129.458 21.12C129.874 21.12 130.242 21.264 130.562 21.552C130.914 21.808 131.09 22.208 131.09 22.752V40.992C131.09 41.472 130.914 41.84 130.562 42.096C130.242 42.352 129.874 42.48 129.458 42.48ZM141.717 42.48C139.317 42.48 137.445 41.792 136.101 40.416C134.757 39.04 134.085 37.184 134.085 34.848C134.085 32.8 134.757 31.12 136.101 29.808C137.477 28.496 139.237 27.84 141.381 27.84C143.461 27.84 145.125 28.448 146.373 29.664C147.621 30.848 148.245 32.32 148.245 34.08C148.245 34.784 148.053 35.312 147.669 35.664C147.317 36.016 146.853 36.192 146.277 36.192H137.925C137.605 36.192 137.493 36.368 137.589 36.72C137.845 37.616 138.357 38.32 139.125 38.832C139.925 39.312 140.821 39.552 141.813 39.552C142.549 39.552 143.253 39.456 143.925 39.264C144.629 39.072 145.237 38.784 145.749 38.4C145.909 38.272 146.117 38.208 146.373 38.208C146.725 38.208 147.045 38.368 147.333 38.688C147.621 38.976 147.765 39.328 147.765 39.744C147.765 39.936 147.733 40.128 147.669 40.32C147.605 40.512 147.461 40.704 147.237 40.896C146.405 41.504 145.509 41.92 144.549 42.144C143.621 42.368 142.677 42.48 141.717 42.48ZM144.501 33.696C144.693 33.696 144.789 33.6 144.789 33.408C144.789 32.672 144.453 32.032 143.781 31.488C143.141 30.944 142.341 30.672 141.381 30.672C140.549 30.672 139.749 30.896 138.981 31.344C138.245 31.792 137.797 32.384 137.637 33.12C137.637 33.12 137.637 33.136 137.637 33.168C137.605 33.296 137.589 33.408 137.589 33.504C137.621 33.6 137.765 33.648 138.021 33.648L144.501 33.696Z" fill="#619ABC"/>
</svg>
